<svg version="1.1" xmlns="http://www.w3.org/2000/svg" xmlns:xlink="http://www.w3.org/1999/xlink" x="0px" y="0px" viewBox="0 0 512 512" enable-background="new 0 0 512 512" xml:space="preserve">
  <path id="location-7-icon" d="M256,50c-93.061,0-168.5,75.44-168.5,168.5C87.5,313,169.43,375.333,256,462 c86.57-86.667,168.5-149,168.5-243.5C424.5,125.44,349.061,50,256,50z M256,336.958c-68.275,0-123.624-55.349-123.624-123.624 c0-68.276,55.349-123.624,123.624-123.624c68.276,0,123.625,55.348,123.625,123.624C379.625,281.609,324.276,336.958,256,336.958z M300.986,282.71L256,237.728l-44.984,44.988l-24.163-24.177l44.976-44.983l-44.981-44.978l24.177-24.163l44.975,44.967 l44.967-44.973l24.183,24.167l-44.975,44.978l44.979,44.973L300.986,282.71z"></path>
</svg>
